<?xml version="1.0" encoding="UTF-8" standalone="no"?>
<!DOCTYPE svg PUBLIC "-//W3C//DTD SVG 1.1//EN"
 "http://www.w3.org/Graphics/SVG/1.1/DTD/svg11.dtd">
<!-- Generated by graphviz version 3.0.0 (20220226.1711)
 -->
<!-- Title: trace Pages: 1 -->
<svg width="730pt" height="1370pt"
 viewBox="0.00 0.00 730.00 1370.00" xmlns="http://www.w3.org/2000/svg" xmlns:xlink="http://www.w3.org/1999/xlink">
<g id="graph0" class="graph" transform="scale(1 1) rotate(0) translate(4 1366)">
<title>trace</title>
<polygon fill="white" stroke="transparent" points="-4,4 -4,-1366 726,-1366 726,4 -4,4"/>
<g id="clust1" class="cluster">
<title>cluster_AS174</title>
<polygon fill="none" stroke="#608686" points="30,-170 30,-1156 454,-1156 454,-170 30,-170"/>
<text text-anchor="middle" x="242" y="-1144" font-family="Times,serif" font-size="10.00">AS174</text>
<text text-anchor="middle" x="242" y="-1133" font-family="Times,serif" font-size="10.00">[COGENT&#45;174, US]</text>
</g>
<g id="clust2" class="cluster">
<title>cluster_AS198949</title>
<polygon fill="none" stroke="#60baba" points="167,-1164 167,-1318 449,-1318 449,-1164 167,-1164"/>
<text text-anchor="middle" x="308" y="-1306" font-family="Times,serif" font-size="10.00">AS198949</text>
<text text-anchor="middle" x="308" y="-1295" font-family="Times,serif" font-size="10.00">[BTAA_UNIVERSITY_OF_CHICAGO]</text>
</g>
<g id="clust3" class="cluster">
<title>cluster_AS13238</title>
<polygon fill="none" stroke="#60ffff" points="8,-8 8,-162 192,-162 192,-8 8,-8"/>
<text text-anchor="middle" x="100" y="-150" font-family="Times,serif" font-size="10.00">AS13238</text>
<text text-anchor="middle" x="100" y="-139" font-family="Times,serif" font-size="10.00">[Yandex network]</text>
</g>
<g id="clust4" class="cluster">
<title>cluster_AS8075</title>
<polygon fill="none" stroke="#868660" points="488,-613 488,-695 636,-695 636,-613 488,-613"/>
<text text-anchor="middle" x="562" y="-683" font-family="Times,serif" font-size="10.00">AS8075</text>
<text text-anchor="middle" x="562" y="-672" font-family="Times,serif" font-size="10.00">[MICROSOFT]</text>
</g>
<g id="clust5" class="cluster">
<title>cluster_AS54113</title>
<polygon fill="none" stroke="#86ba86" points="530,-703 530,-786 714,-786 714,-703 530,-703"/>
<text text-anchor="middle" x="622" y="-774" font-family="Times,serif" font-size="10.00">AS54113</text>
<text text-anchor="middle" x="622" y="-763" font-family="Times,serif" font-size="10.00">[Fastly]</text>
</g>
<g id="clust6" class="cluster">
<title>cluster_AS8068</title>
<polygon fill="none" stroke="#86ffba" points="462,-458 462,-541 626,-541 626,-458 462,-458"/>
<text text-anchor="middle" x="544" y="-529" font-family="Times,serif" font-size="10.00">AS8068</text>
<text text-anchor="middle" x="544" y="-518" font-family="Times,serif" font-size="10.00">[Microsoft]</text>
</g>
<!-- 38.104.100.162 -->
<g id="node1" class="node">
<title>38.104.100.162</title>
<ellipse fill="#608686" stroke="black" cx="238" cy="-812" rx="66.09" ry="18"/>
<text text-anchor="middle" x="238" y="-808.3" font-family="Times,serif" font-size="14.00">38.104.100.162</text>
</g>
<!-- unk0 -->
<g id="node30" class="node">
<title>unk0</title>
<ellipse fill="none" stroke="black" cx="491" cy="-729.5" rx="28.7" ry="18"/>
<text text-anchor="middle" x="491" y="-725.8" font-family="Times,serif" font-size="14.00">unk0</text>
</g>
<!-- 38.104.100.162&#45;&gt;unk0 -->
<g id="edge29" class="edge">
<title>38.104.100.162&#45;&gt;unk0</title>
<path fill="none" stroke="#a04040" d="M284.59,-799.17C293.94,-797.15 303.74,-795.29 313,-794 328.98,-791.76 444.2,-794.36 458,-786 468.9,-779.4 476.63,-767.71 481.85,-756.76"/>
<polygon fill="#a04040" stroke="#a04040" points="485.11,-758.04 485.81,-747.47 478.67,-755.3 485.11,-758.04"/>
</g>
<!-- 130.117.0.134 -->
<g id="node2" class="node">
<title>130.117.0.134</title>
<ellipse fill="#608686" stroke="black" cx="100" cy="-268" rx="61.99" ry="18"/>
<text text-anchor="middle" x="100" y="-264.3" font-family="Times,serif" font-size="14.00">130.117.0.134</text>
</g>
<!-- 149.11.124.74 -->
<g id="node10" class="node">
<title>149.11.124.74</title>
<ellipse fill="#608686" stroke="black" cx="100" cy="-196" rx="61.99" ry="18"/>
<text text-anchor="middle" x="100" y="-192.3" font-family="Times,serif" font-size="14.00">149.11.124.74</text>
</g>
<!-- 130.117.0.134&#45;&gt;149.11.124.74 -->
<g id="edge17" class="edge">
<title>130.117.0.134&#45;&gt;149.11.124.74</title>
<path fill="none" stroke="#a07070" d="M100,-249.7C100,-241.98 100,-232.71 100,-224.11"/>
<polygon fill="#a07070" stroke="#a07070" points="103.5,-224.1 100,-214.1 96.5,-224.1 103.5,-224.1"/>
</g>
<!-- 154.54.81.101 -->
<g id="node3" class="node">
<title>154.54.81.101</title>
<ellipse fill="#608686" stroke="black" cx="383" cy="-956" rx="61.99" ry="18"/>
<text text-anchor="middle" x="383" y="-952.3" font-family="Times,serif" font-size="14.00">154.54.81.101</text>
</g>
<!-- 154.54.82.142 -->
<g id="node14" class="node">
<title>154.54.82.142</title>
<ellipse fill="#608686" stroke="black" cx="383" cy="-884" rx="61.99" ry="18"/>
<text text-anchor="middle" x="383" y="-880.3" font-family="Times,serif" font-size="14.00">154.54.82.142</text>
</g>
<!-- 154.54.81.101&#45;&gt;154.54.82.142 -->
<g id="edge40" class="edge">
<title>154.54.81.101&#45;&gt;154.54.82.142</title>
<path fill="none" stroke="#a02020" d="M383,-937.7C383,-929.98 383,-920.71 383,-912.11"/>
<polygon fill="#a02020" stroke="#a02020" points="386.5,-912.1 383,-902.1 379.5,-912.1 386.5,-912.1"/>
</g>
<!-- 38.104.103.9 -->
<g id="node4" class="node">
<title>38.104.103.9</title>
<ellipse fill="#608686" stroke="black" cx="241" cy="-1100" rx="57.69" ry="18"/>
<text text-anchor="middle" x="241" y="-1096.3" font-family="Times,serif" font-size="14.00">38.104.103.9</text>
</g>
<!-- 154.24.64.29 -->
<g id="node19" class="node">
<title>154.24.64.29</title>
<ellipse fill="#608686" stroke="black" cx="241" cy="-1028" rx="57.69" ry="18"/>
<text text-anchor="middle" x="241" y="-1024.3" font-family="Times,serif" font-size="14.00">154.24.64.29</text>
</g>
<!-- 38.104.103.9&#45;&gt;154.24.64.29 -->
<g id="edge6" class="edge">
<title>38.104.103.9&#45;&gt;154.24.64.29</title>
<path fill="none" stroke="#a07070" d="M229.24,-1082.05C227.56,-1074.14 227.1,-1064.54 227.84,-1055.69"/>
<polygon fill="#a07070" stroke="#a07070" points="231.31,-1056.19 229.28,-1045.79 224.38,-1055.18 231.31,-1056.19"/>
</g>
<!-- 38.104.103.9&#45;&gt;154.24.64.29 -->
<g id="edge25" class="edge">
<title>38.104.103.9&#45;&gt;154.24.64.29</title>
<path fill="none" stroke="#a04040" d="M241,-1081.7C241,-1073.98 241,-1064.71 241,-1056.11"/>
<polygon fill="#a04040" stroke="#a04040" points="244.5,-1056.1 241,-1046.1 237.5,-1056.1 244.5,-1056.1"/>
</g>
<!-- 38.104.103.9&#45;&gt;154.24.64.29 -->
<g id="edge38" class="edge">
<title>38.104.103.9&#45;&gt;154.24.64.29</title>
<path fill="none" stroke="#a02020" d="M252.76,-1082.05C254.44,-1074.14 254.9,-1064.54 254.16,-1055.69"/>
<polygon fill="#a02020" stroke="#a02020" points="257.62,-1055.18 252.72,-1045.79 250.69,-1056.19 257.62,-1055.18"/>
</g>
<!-- 154.54.61.230 -->
<g id="node5" class="node">
<title>154.54.61.230</title>
<ellipse fill="#608686" stroke="black" cx="100" cy="-484.5" rx="61.99" ry="18"/>
<text text-anchor="middle" x="100" y="-480.8" font-family="Times,serif" font-size="14.00">154.54.61.230</text>
</g>
<!-- 154.54.61.242 -->
<g id="node7" class="node">
<title>154.54.61.242</title>
<ellipse fill="#608686" stroke="black" cx="100" cy="-412" rx="61.99" ry="18"/>
<text text-anchor="middle" x="100" y="-408.3" font-family="Times,serif" font-size="14.00">154.54.61.242</text>
</g>
<!-- 154.54.61.230&#45;&gt;154.54.61.242 -->
<g id="edge14" class="edge">
<title>154.54.61.230&#45;&gt;154.54.61.242</title>
<path fill="none" stroke="#a07070" d="M100,-466.43C100,-458.67 100,-449.28 100,-440.56"/>
<polygon fill="#a07070" stroke="#a07070" points="103.5,-440.4 100,-430.4 96.5,-440.4 103.5,-440.4"/>
</g>
<!-- 130.117.51.42 -->
<g id="node6" class="node">
<title>130.117.51.42</title>
<ellipse fill="#608686" stroke="black" cx="100" cy="-639" rx="61.99" ry="18"/>
<text text-anchor="middle" x="100" y="-635.3" font-family="Times,serif" font-size="14.00">130.117.51.42</text>
</g>
<!-- 154.54.38.210 -->
<g id="node9" class="node">
<title>154.54.38.210</title>
<ellipse fill="#608686" stroke="black" cx="100" cy="-567" rx="61.99" ry="18"/>
<text text-anchor="middle" x="100" y="-563.3" font-family="Times,serif" font-size="14.00">154.54.38.210</text>
</g>
<!-- 130.117.51.42&#45;&gt;154.54.38.210 -->
<g id="edge12" class="edge">
<title>130.117.51.42&#45;&gt;154.54.38.210</title>
<path fill="none" stroke="#a07070" d="M100,-620.7C100,-612.98 100,-603.71 100,-595.11"/>
<polygon fill="#a07070" stroke="#a07070" points="103.5,-595.1 100,-585.1 96.5,-595.1 103.5,-595.1"/>
</g>
<!-- 154.54.62.250 -->
<g id="node17" class="node">
<title>154.54.62.250</title>
<ellipse fill="#608686" stroke="black" cx="100" cy="-340" rx="61.99" ry="18"/>
<text text-anchor="middle" x="100" y="-336.3" font-family="Times,serif" font-size="14.00">154.54.62.250</text>
</g>
<!-- 154.54.61.242&#45;&gt;154.54.62.250 -->
<g id="edge15" class="edge">
<title>154.54.61.242&#45;&gt;154.54.62.250</title>
<path fill="none" stroke="#a07070" d="M100,-393.7C100,-385.98 100,-376.71 100,-368.11"/>
<polygon fill="#a07070" stroke="#a07070" points="103.5,-368.1 100,-358.1 96.5,-368.1 103.5,-368.1"/>
</g>
<!-- 154.54.82.202 -->
<g id="node8" class="node">
<title>154.54.82.202</title>
<ellipse fill="#608686" stroke="black" cx="239" cy="-884" rx="61.99" ry="18"/>
<text text-anchor="middle" x="239" y="-880.3" font-family="Times,serif" font-size="14.00">154.54.82.202</text>
</g>
<!-- 154.54.82.202&#45;&gt;38.104.100.162 -->
<g id="edge28" class="edge">
<title>154.54.82.202&#45;&gt;38.104.100.162</title>
<path fill="none" stroke="#a04040" d="M238.75,-865.7C238.64,-857.98 238.51,-848.71 238.39,-840.11"/>
<polygon fill="#a04040" stroke="#a04040" points="241.89,-840.05 238.24,-830.1 234.89,-840.15 241.89,-840.05"/>
</g>
<!-- 154.54.38.210&#45;&gt;154.54.61.230 -->
<g id="edge13" class="edge">
<title>154.54.38.210&#45;&gt;154.54.61.230</title>
<path fill="none" stroke="#a07070" d="M100,-548.93C100,-538.47 100,-524.84 100,-512.9"/>
<polygon fill="#a07070" stroke="#a07070" points="103.5,-512.55 100,-502.55 96.5,-512.55 103.5,-512.55"/>
</g>
<!-- 87.250.239.223 -->
<g id="node24" class="node">
<title>87.250.239.223</title>
<ellipse fill="#60ffff" stroke="black" cx="100" cy="-106" rx="66.09" ry="18"/>
<text text-anchor="middle" x="100" y="-102.3" font-family="Times,serif" font-size="14.00">87.250.239.223</text>
</g>
<!-- 149.11.124.74&#45;&gt;87.250.239.223 -->
<g id="edge18" class="edge">
<title>149.11.124.74&#45;&gt;87.250.239.223</title>
<path fill="none" stroke="#a07070" d="M100,-177.61C100,-165.24 100,-148.37 100,-134.22"/>
<polygon fill="#a07070" stroke="#a07070" points="103.5,-134.05 100,-124.05 96.5,-134.05 103.5,-134.05"/>
</g>
<!-- 154.54.7.130 -->
<g id="node11" class="node">
<title>154.54.7.130</title>
<ellipse fill="#608686" stroke="black" cx="98" cy="-884" rx="57.69" ry="18"/>
<text text-anchor="middle" x="98" y="-880.3" font-family="Times,serif" font-size="14.00">154.54.7.130</text>
</g>
<!-- 154.54.47.50 -->
<g id="node18" class="node">
<title>154.54.47.50</title>
<ellipse fill="#608686" stroke="black" cx="96" cy="-812" rx="57.69" ry="18"/>
<text text-anchor="middle" x="96" y="-808.3" font-family="Times,serif" font-size="14.00">154.54.47.50</text>
</g>
<!-- 154.54.7.130&#45;&gt;154.54.47.50 -->
<g id="edge9" class="edge">
<title>154.54.7.130&#45;&gt;154.54.47.50</title>
<path fill="none" stroke="#a07070" d="M97.51,-865.7C97.29,-857.98 97.02,-848.71 96.77,-840.11"/>
<polygon fill="#a07070" stroke="#a07070" points="100.27,-840 96.49,-830.1 93.28,-840.2 100.27,-840"/>
</g>
<!-- 154.54.81.109 -->
<g id="node12" class="node">
<title>154.54.81.109</title>
<ellipse fill="#608686" stroke="black" cx="100" cy="-956" rx="61.99" ry="18"/>
<text text-anchor="middle" x="100" y="-952.3" font-family="Times,serif" font-size="14.00">154.54.81.109</text>
</g>
<!-- 154.54.81.109&#45;&gt;154.54.7.130 -->
<g id="edge8" class="edge">
<title>154.54.81.109&#45;&gt;154.54.7.130</title>
<path fill="none" stroke="#a07070" d="M99.51,-937.7C99.29,-929.98 99.02,-920.71 98.77,-912.11"/>
<polygon fill="#a07070" stroke="#a07070" points="102.27,-912 98.49,-902.1 95.28,-912.2 102.27,-912"/>
</g>
<!-- 154.54.80.253 -->
<g id="node13" class="node">
<title>154.54.80.253</title>
<ellipse fill="#608686" stroke="black" cx="241" cy="-956" rx="61.99" ry="18"/>
<text text-anchor="middle" x="241" y="-952.3" font-family="Times,serif" font-size="14.00">154.54.80.253</text>
</g>
<!-- 154.54.80.253&#45;&gt;154.54.82.202 -->
<g id="edge27" class="edge">
<title>154.54.80.253&#45;&gt;154.54.82.202</title>
<path fill="none" stroke="#a04040" d="M240.51,-937.7C240.29,-929.98 240.02,-920.71 239.77,-912.11"/>
<polygon fill="#a04040" stroke="#a04040" points="243.27,-912 239.49,-902.1 236.28,-912.2 243.27,-912"/>
</g>
<!-- 38.104.100.10 -->
<g id="node15" class="node">
<title>38.104.100.10</title>
<ellipse fill="#608686" stroke="black" cx="384" cy="-812" rx="61.99" ry="18"/>
<text text-anchor="middle" x="384" y="-808.3" font-family="Times,serif" font-size="14.00">38.104.100.10</text>
</g>
<!-- 154.54.82.142&#45;&gt;38.104.100.10 -->
<g id="edge41" class="edge">
<title>154.54.82.142&#45;&gt;38.104.100.10</title>
<path fill="none" stroke="#a02020" d="M383.25,-865.7C383.36,-857.98 383.49,-848.71 383.61,-840.11"/>
<polygon fill="#a02020" stroke="#a02020" points="387.11,-840.15 383.76,-830.1 380.11,-840.05 387.11,-840.15"/>
</g>
<!-- 151.101.193.140 -->
<g id="node26" class="node">
<title>151.101.193.140</title>
<polygon fill="green" stroke="black" points="538,-711.5 538,-747.5 706,-747.5 706,-711.5 538,-711.5"/>
<text text-anchor="middle" x="592.5" y="-725.8" font-family="Times,serif" font-size="14.00">151.101.193.140</text>
<polyline fill="none" stroke="black" points="647,-711.5 647,-747.5 "/>
<text text-anchor="middle" x="676.5" y="-725.8" font-family="Times,serif" font-size="14.00">http SA</text>
</g>
<!-- 38.104.100.10&#45;&gt;151.101.193.140 -->
<g id="edge42" class="edge">
<title>38.104.100.10&#45;&gt;151.101.193.140:T80</title>
<path fill="none" stroke="#a02020" d="M445.42,-810.15C524.96,-807.47 655.71,-797.15 674.68,-758.38"/>
<polygon fill="#a02020" stroke="#a02020" points="678.12,-759.04 677,-748.5 671.3,-757.43 678.12,-759.04"/>
</g>
<!-- 154.54.41.206 -->
<g id="node16" class="node">
<title>154.54.41.206</title>
<ellipse fill="#608686" stroke="black" cx="100" cy="-729.5" rx="61.99" ry="18"/>
<text text-anchor="middle" x="100" y="-725.8" font-family="Times,serif" font-size="14.00">154.54.41.206</text>
</g>
<!-- 154.54.41.206&#45;&gt;130.117.51.42 -->
<g id="edge11" class="edge">
<title>154.54.41.206&#45;&gt;130.117.51.42</title>
<path fill="none" stroke="#a07070" d="M100,-711.44C100,-698.95 100,-681.74 100,-667.35"/>
<polygon fill="#a07070" stroke="#a07070" points="103.5,-667.01 100,-657.01 96.5,-667.01 103.5,-667.01"/>
</g>
<!-- 154.54.62.250&#45;&gt;130.117.0.134 -->
<g id="edge16" class="edge">
<title>154.54.62.250&#45;&gt;130.117.0.134</title>
<path fill="none" stroke="#a07070" d="M100,-321.7C100,-313.98 100,-304.71 100,-296.11"/>
<polygon fill="#a07070" stroke="#a07070" points="103.5,-296.1 100,-286.1 96.5,-296.1 103.5,-296.1"/>
</g>
<!-- 154.54.47.50&#45;&gt;154.54.41.206 -->
<g id="edge10" class="edge">
<title>154.54.47.50&#45;&gt;154.54.41.206</title>
<path fill="none" stroke="#a07070" d="M96.85,-793.93C97.37,-783.36 98.06,-769.56 98.66,-757.54"/>
<polygon fill="#a07070" stroke="#a07070" points="102.15,-757.71 99.15,-747.55 95.16,-757.36 102.15,-757.71"/>
</g>
<!-- 154.24.64.29&#45;&gt;154.54.81.101 -->
<g id="edge39" class="edge">
<title>154.24.64.29&#45;&gt;154.54.81.101</title>
<path fill="none" stroke="#a02020" d="M270.42,-1012.5C291.56,-1002.08 320.28,-987.92 343.42,-976.51"/>
<polygon fill="#a02020" stroke="#a02020" points="345.21,-979.53 352.64,-971.97 342.12,-973.25 345.21,-979.53"/>
</g>
<!-- 154.24.64.29&#45;&gt;154.54.81.109 -->
<g id="edge7" class="edge">
<title>154.24.64.29&#45;&gt;154.54.81.109</title>
<path fill="none" stroke="#a07070" d="M211.44,-1012.33C190.43,-1001.9 162,-987.78 139.12,-976.42"/>
<polygon fill="#a07070" stroke="#a07070" points="140.52,-973.21 130,-971.9 137.41,-979.48 140.52,-973.21"/>
</g>
<!-- 154.24.64.29&#45;&gt;154.54.80.253 -->
<g id="edge26" class="edge">
<title>154.24.64.29&#45;&gt;154.54.80.253</title>
<path fill="none" stroke="#a04040" d="M241,-1009.7C241,-1001.98 241,-992.71 241,-984.11"/>
<polygon fill="#a04040" stroke="#a04040" points="244.5,-984.1 241,-974.1 237.5,-984.1 244.5,-984.1"/>
</g>
<!-- 128.135.98.2 -->
<g id="node20" class="node">
<title>128.135.98.2</title>
<ellipse fill="#60baba" stroke="black" cx="383" cy="-1262" rx="57.69" ry="18"/>
<text text-anchor="middle" x="383" y="-1258.3" font-family="Times,serif" font-size="14.00">128.135.98.2</text>
</g>
<!-- 10.5.1.32 -->
<g id="node29" class="node">
<title>10.5.1.32</title>
<ellipse fill="none" stroke="black" cx="501" cy="-1190" rx="44.39" ry="18"/>
<text text-anchor="middle" x="501" y="-1186.3" font-family="Times,serif" font-size="14.00">10.5.1.32</text>
</g>
<!-- 128.135.98.2&#45;&gt;10.5.1.32 -->
<g id="edge2" class="edge">
<title>128.135.98.2&#45;&gt;10.5.1.32</title>
<path fill="none" stroke="#a07070" d="M399.02,-1244.59C415.21,-1233.54 439.68,-1219 460.85,-1207.85"/>
<polygon fill="#a07070" stroke="#a07070" points="462.7,-1210.84 470,-1203.15 459.5,-1204.61 462.7,-1210.84"/>
</g>
<!-- 128.135.98.2&#45;&gt;10.5.1.32 -->
<g id="edge21" class="edge">
<title>128.135.98.2&#45;&gt;10.5.1.32</title>
<path fill="none" stroke="#a04040" d="M408.6,-1245.81C426.08,-1235.44 449.38,-1221.62 468.21,-1210.45"/>
<polygon fill="#a04040" stroke="#a04040" points="470.24,-1213.32 477.05,-1205.21 466.67,-1207.3 470.24,-1213.32"/>
</g>
<!-- 128.135.98.2&#45;&gt;10.5.1.32 -->
<g id="edge34" class="edge">
<title>128.135.98.2&#45;&gt;10.5.1.32</title>
<path fill="none" stroke="#a02020" d="M416.99,-1247.34C436.26,-1237.51 459.48,-1224.06 476.92,-1212.76"/>
<polygon fill="#a02020" stroke="#a02020" points="479.07,-1215.53 485.46,-1207.08 475.19,-1209.71 479.07,-1215.53"/>
</g>
<!-- 192.170.192.51 -->
<g id="node21" class="node">
<title>192.170.192.51</title>
<ellipse fill="#60baba" stroke="black" cx="241" cy="-1262" rx="66.09" ry="18"/>
<text text-anchor="middle" x="241" y="-1258.3" font-family="Times,serif" font-size="14.00">192.170.192.51</text>
</g>
<!-- 192.170.192.38 -->
<g id="node22" class="node">
<title>192.170.192.38</title>
<ellipse fill="#60baba" stroke="black" cx="241" cy="-1190" rx="66.09" ry="18"/>
<text text-anchor="middle" x="241" y="-1186.3" font-family="Times,serif" font-size="14.00">192.170.192.38</text>
</g>
<!-- 192.170.192.51&#45;&gt;192.170.192.38 -->
<g id="edge4" class="edge">
<title>192.170.192.51&#45;&gt;192.170.192.38</title>
<path fill="none" stroke="#a07070" d="M229.24,-1244.05C227.56,-1236.14 227.1,-1226.54 227.84,-1217.69"/>
<polygon fill="#a07070" stroke="#a07070" points="231.31,-1218.19 229.28,-1207.79 224.38,-1217.18 231.31,-1218.19"/>
</g>
<!-- 192.170.192.51&#45;&gt;192.170.192.38 -->
<g id="edge23" class="edge">
<title>192.170.192.51&#45;&gt;192.170.192.38</title>
<path fill="none" stroke="#a04040" d="M241,-1243.7C241,-1235.98 241,-1226.71 241,-1218.11"/>
<polygon fill="#a04040" stroke="#a04040" points="244.5,-1218.1 241,-1208.1 237.5,-1218.1 244.5,-1218.1"/>
</g>
<!-- 192.170.192.51&#45;&gt;192.170.192.38 -->
<g id="edge36" class="edge">
<title>192.170.192.51&#45;&gt;192.170.192.38</title>
<path fill="none" stroke="#a02020" d="M252.76,-1244.05C254.44,-1236.14 254.9,-1226.54 254.16,-1217.69"/>
<polygon fill="#a02020" stroke="#a02020" points="257.62,-1217.18 252.72,-1207.79 250.69,-1218.19 257.62,-1217.18"/>
</g>
<!-- 192.170.192.38&#45;&gt;38.104.103.9 -->
<g id="edge5" class="edge">
<title>192.170.192.38&#45;&gt;38.104.103.9</title>
<path fill="none" stroke="#a07070" d="M230.08,-1172.03C227.34,-1159.62 226.78,-1142.51 228.42,-1128.19"/>
<polygon fill="#a07070" stroke="#a07070" points="231.94,-1128.35 230.1,-1117.92 225.03,-1127.22 231.94,-1128.35"/>
</g>
<!-- 192.170.192.38&#45;&gt;38.104.103.9 -->
<g id="edge24" class="edge">
<title>192.170.192.38&#45;&gt;38.104.103.9</title>
<path fill="none" stroke="#a04040" d="M241,-1171.61C241,-1159.24 241,-1142.37 241,-1128.22"/>
<polygon fill="#a04040" stroke="#a04040" points="244.5,-1128.05 241,-1118.05 237.5,-1128.05 244.5,-1128.05"/>
</g>
<!-- 192.170.192.38&#45;&gt;38.104.103.9 -->
<g id="edge37" class="edge">
<title>192.170.192.38&#45;&gt;38.104.103.9</title>
<path fill="none" stroke="#a02020" d="M251.92,-1172.03C254.66,-1159.62 255.22,-1142.51 253.58,-1128.19"/>
<polygon fill="#a02020" stroke="#a02020" points="256.97,-1127.22 251.9,-1117.92 250.06,-1128.35 256.97,-1127.22"/>
</g>
<!-- 77.88.55.50 80/tcp -->
<g id="node23" class="node">
<title>77.88.55.50 80/tcp</title>
<polygon fill="red" stroke="black" points="183.93,-26.54 183.93,-41.46 134.77,-52 65.23,-52 16.07,-41.46 16.07,-26.54 65.23,-16 134.77,-16 183.93,-26.54"/>
<text text-anchor="middle" x="100" y="-30.3" font-family="Times,serif" font-size="14.00">77.88.55.50 80/tcp</text>
</g>
<!-- 87.250.239.223&#45;&gt;77.88.55.50 80/tcp -->
<g id="edge19" class="edge">
<title>87.250.239.223&#45;&gt;77.88.55.50 80/tcp</title>
<path fill="none" stroke="#a07070" d="M100,-87.7C100,-79.98 100,-70.71 100,-62.11"/>
<polygon fill="#a07070" stroke="#a07070" points="103.5,-62.1 100,-52.1 96.5,-62.1 103.5,-62.1"/>
</g>
<!-- 13.104.141.105 -->
<g id="node25" class="node">
<title>13.104.141.105</title>
<ellipse fill="#868660" stroke="black" cx="562" cy="-639" rx="66.09" ry="18"/>
<text text-anchor="middle" x="562" y="-635.3" font-family="Times,serif" font-size="14.00">13.104.141.105</text>
</g>
<!-- unk1 -->
<g id="node31" class="node">
<title>unk1</title>
<ellipse fill="none" stroke="black" cx="575" cy="-567" rx="28.7" ry="18"/>
<text text-anchor="middle" x="575" y="-563.3" font-family="Times,serif" font-size="14.00">unk1</text>
</g>
<!-- 13.104.141.105&#45;&gt;unk1 -->
<g id="edge31" class="edge">
<title>13.104.141.105&#45;&gt;unk1</title>
<path fill="none" stroke="#a04040" d="M565.21,-620.7C566.65,-612.98 568.37,-603.71 569.96,-595.11"/>
<polygon fill="#a04040" stroke="#a04040" points="573.44,-595.58 571.82,-585.1 566.56,-594.3 573.44,-595.58"/>
</g>
<!-- 13.107.42.14 -->
<g id="node27" class="node">
<title>13.107.42.14</title>
<polygon fill="green" stroke="black" points="470,-466.5 470,-502.5 618,-502.5 618,-466.5 470,-466.5"/>
<text text-anchor="middle" x="514.5" y="-480.8" font-family="Times,serif" font-size="14.00">13.107.42.14</text>
<polyline fill="none" stroke="black" points="559,-466.5 559,-502.5 "/>
<text text-anchor="middle" x="588.5" y="-480.8" font-family="Times,serif" font-size="14.00">http SA</text>
</g>
<!-- 10.150.0.2 -->
<g id="node28" class="node">
<title>10.150.0.2</title>
<ellipse fill="none" stroke="black" cx="383" cy="-1344" rx="48.99" ry="18"/>
<text text-anchor="middle" x="383" y="-1340.3" font-family="Times,serif" font-size="14.00">10.150.0.2</text>
</g>
<!-- 10.150.0.2&#45;&gt;128.135.98.2 -->
<g id="edge1" class="edge">
<title>10.150.0.2&#45;&gt;128.135.98.2</title>
<path fill="none" stroke="#a07070" d="M371.81,-1326.42C369.44,-1315.88 368.89,-1301.97 370.17,-1289.87"/>
<polygon fill="#a07070" stroke="#a07070" points="373.65,-1290.25 371.76,-1279.83 366.74,-1289.16 373.65,-1290.25"/>
</g>
<!-- 10.150.0.2&#45;&gt;128.135.98.2 -->
<g id="edge20" class="edge">
<title>10.150.0.2&#45;&gt;128.135.98.2</title>
<path fill="none" stroke="#a04040" d="M383,-1325.64C383,-1315.3 383,-1301.94 383,-1290.22"/>
<polygon fill="#a04040" stroke="#a04040" points="386.5,-1290.05 383,-1280.05 379.5,-1290.05 386.5,-1290.05"/>
</g>
<!-- 10.150.0.2&#45;&gt;128.135.98.2 -->
<g id="edge33" class="edge">
<title>10.150.0.2&#45;&gt;128.135.98.2</title>
<path fill="none" stroke="#a02020" d="M394.19,-1326.42C396.56,-1315.88 397.11,-1301.97 395.83,-1289.87"/>
<polygon fill="#a02020" stroke="#a02020" points="399.26,-1289.16 394.24,-1279.83 392.35,-1290.25 399.26,-1289.16"/>
</g>
<!-- 10.5.1.32&#45;&gt;192.170.192.51 -->
<g id="edge3" class="edge">
<title>10.5.1.32&#45;&gt;192.170.192.51</title>
<path fill="none" stroke="#a07070" d="M462.57,-1199.14C453.19,-1202.11 443.72,-1205.37 435,-1208 407.95,-1216.15 340.64,-1232.75 292.6,-1245.21"/>
<polygon fill="#a07070" stroke="#a07070" points="291.46,-1241.9 282.67,-1247.81 293.23,-1248.67 291.46,-1241.9"/>
</g>
<!-- 10.5.1.32&#45;&gt;192.170.192.51 -->
<g id="edge22" class="edge">
<title>10.5.1.32&#45;&gt;192.170.192.51</title>
<path fill="none" stroke="#a04040" d="M469.38,-1202.68C463.95,-1204.55 458.33,-1206.39 453,-1208 424.51,-1216.59 351.31,-1234.55 298.91,-1247.18"/>
<polygon fill="#a04040" stroke="#a04040" points="297.96,-1243.81 289.06,-1249.55 299.6,-1250.61 297.96,-1243.81"/>
</g>
<!-- 10.5.1.32&#45;&gt;192.170.192.51 -->
<g id="edge35" class="edge">
<title>10.5.1.32&#45;&gt;192.170.192.51</title>
<path fill="none" stroke="#a02020" d="M478.73,-1205.57C476.14,-1206.42 473.54,-1207.23 471,-1208 441.1,-1217.01 361.99,-1236.35 304.54,-1249"/>
<polygon fill="#a02020" stroke="#a02020" points="303.47,-1245.66 294.44,-1251.21 304.96,-1252.5 303.47,-1245.66"/>
</g>
<!-- unk0&#45;&gt;13.104.141.105 -->
<g id="edge30" class="edge">
<title>unk0&#45;&gt;13.104.141.105</title>
<path fill="none" stroke="#a04040" d="M503.37,-713.08C514.03,-699.8 529.62,-680.36 542.04,-664.88"/>
<polygon fill="#a04040" stroke="#a04040" points="545.04,-666.73 548.57,-656.74 539.58,-662.35 545.04,-666.73"/>
</g>
<!-- unk1&#45;&gt;13.107.42.14 -->
<g id="edge32" class="edge">
<title>unk1&#45;&gt;13.107.42.14:T80</title>
<path fill="none" stroke="#a04040" d="M580.86,-549.25C583.88,-539.42 587.2,-526.45 588.47,-513.66"/>
<polygon fill="#a04040" stroke="#a04040" points="591.97,-513.67 589,-503.5 584.98,-513.3 591.97,-513.67"/>
</g>
</g>
</svg>
