<?xml version="1.0" encoding="UTF-8" standalone="no"?>
<!DOCTYPE svg PUBLIC "-//W3C//DTD SVG 1.1//EN"
 "http://www.w3.org/Graphics/SVG/1.1/DTD/svg11.dtd">
<!-- Generated by graphviz version 3.0.0 (20220226.1711)
 -->
<!-- Title: trace Pages: 1 -->
<svg width="412pt" height="1258pt"
 viewBox="0.00 0.00 412.20 1258.00" xmlns="http://www.w3.org/2000/svg" xmlns:xlink="http://www.w3.org/1999/xlink">
<g id="graph0" class="graph" transform="scale(1 1) rotate(0) translate(4 1254)">
<title>trace</title>
<polygon fill="white" stroke="transparent" points="-4,4 -4,-1254 408.2,-1254 408.2,4 -4,4"/>
<g id="clust1" class="cluster">
<title>cluster_AS198949</title>
<polygon fill="none" stroke="#608686" points="26,-1052 26,-1206 308,-1206 308,-1052 26,-1052"/>
<text text-anchor="middle" x="167" y="-1194" font-family="Times,serif" font-size="10.00">AS198949</text>
<text text-anchor="middle" x="167" y="-1183" font-family="Times,serif" font-size="10.00">[BTAA_UNIVERSITY_OF_CHICAGO]</text>
</g>
<g id="clust2" class="cluster">
<title>cluster_AS174</title>
<polygon fill="none" stroke="#60baba" points="30,-98 30,-1044 188,-1044 188,-98 30,-98"/>
<text text-anchor="middle" x="109" y="-1032" font-family="Times,serif" font-size="10.00">AS174</text>
<text text-anchor="middle" x="109" y="-1021" font-family="Times,serif" font-size="10.00">[COGENT&#45;174, US]</text>
</g>
<g id="clust3" class="cluster">
<title>cluster_AS13238</title>
<polygon fill="none" stroke="#60ffff" points="8,-8 8,-90 192,-90 192,-8 8,-8"/>
<text text-anchor="middle" x="100" y="-78" font-family="Times,serif" font-size="10.00">AS13238</text>
<text text-anchor="middle" x="100" y="-67" font-family="Times,serif" font-size="10.00">[Yandex enterprise network]</text>
</g>
<!-- 192.170.192.51 -->
<g id="node1" class="node">
<title>192.170.192.51</title>
<ellipse fill="#608686" stroke="black" cx="100" cy="-1150" rx="66.09" ry="18"/>
<text text-anchor="middle" x="100" y="-1146.3" font-family="Times,serif" font-size="14.00">192.170.192.51</text>
</g>
<!-- 192.170.192.38 -->
<g id="node2" class="node">
<title>192.170.192.38</title>
<ellipse fill="#608686" stroke="black" cx="100" cy="-1078" rx="66.09" ry="18"/>
<text text-anchor="middle" x="100" y="-1074.3" font-family="Times,serif" font-size="14.00">192.170.192.38</text>
</g>
<!-- 192.170.192.51&#45;&gt;192.170.192.38 -->
<g id="edge4" class="edge">
<title>192.170.192.51&#45;&gt;192.170.192.38</title>
<path fill="none" stroke="#a07070" d="M100,-1131.7C100,-1123.98 100,-1114.71 100,-1106.11"/>
<polygon fill="#a07070" stroke="#a07070" points="103.5,-1106.1 100,-1096.1 96.5,-1106.1 103.5,-1106.1"/>
</g>
<!-- 38.104.103.9 -->
<g id="node13" class="node">
<title>38.104.103.9</title>
<ellipse fill="#60baba" stroke="black" cx="100" cy="-988" rx="57.69" ry="18"/>
<text text-anchor="middle" x="100" y="-984.3" font-family="Times,serif" font-size="14.00">38.104.103.9</text>
</g>
<!-- 192.170.192.38&#45;&gt;38.104.103.9 -->
<g id="edge5" class="edge">
<title>192.170.192.38&#45;&gt;38.104.103.9</title>
<path fill="none" stroke="#a07070" d="M100,-1059.61C100,-1047.24 100,-1030.37 100,-1016.22"/>
<polygon fill="#a07070" stroke="#a07070" points="103.5,-1016.05 100,-1006.05 96.5,-1016.05 103.5,-1016.05"/>
</g>
<!-- 128.135.98.2 -->
<g id="node3" class="node">
<title>128.135.98.2</title>
<ellipse fill="#608686" stroke="black" cx="242" cy="-1150" rx="57.69" ry="18"/>
<text text-anchor="middle" x="242" y="-1146.3" font-family="Times,serif" font-size="14.00">128.135.98.2</text>
</g>
<!-- 10.5.1.32 -->
<g id="node19" class="node">
<title>10.5.1.32</title>
<ellipse fill="none" stroke="black" cx="360" cy="-1078" rx="44.39" ry="18"/>
<text text-anchor="middle" x="360" y="-1074.3" font-family="Times,serif" font-size="14.00">10.5.1.32</text>
</g>
<!-- 128.135.98.2&#45;&gt;10.5.1.32 -->
<g id="edge2" class="edge">
<title>128.135.98.2&#45;&gt;10.5.1.32</title>
<path fill="none" stroke="#a07070" d="M267.6,-1133.81C285.08,-1123.44 308.38,-1109.62 327.21,-1098.45"/>
<polygon fill="#a07070" stroke="#a07070" points="329.24,-1101.32 336.05,-1093.21 325.67,-1095.3 329.24,-1101.32"/>
</g>
<!-- 154.54.61.242 -->
<g id="node4" class="node">
<title>154.54.61.242</title>
<ellipse fill="#60baba" stroke="black" cx="100" cy="-340" rx="61.99" ry="18"/>
<text text-anchor="middle" x="100" y="-336.3" font-family="Times,serif" font-size="14.00">154.54.61.242</text>
</g>
<!-- 154.54.62.250 -->
<g id="node8" class="node">
<title>154.54.62.250</title>
<ellipse fill="#60baba" stroke="black" cx="100" cy="-268" rx="61.99" ry="18"/>
<text text-anchor="middle" x="100" y="-264.3" font-family="Times,serif" font-size="14.00">154.54.62.250</text>
</g>
<!-- 154.54.61.242&#45;&gt;154.54.62.250 -->
<g id="edge15" class="edge">
<title>154.54.61.242&#45;&gt;154.54.62.250</title>
<path fill="none" stroke="#a07070" d="M100,-321.7C100,-313.98 100,-304.71 100,-296.11"/>
<polygon fill="#a07070" stroke="#a07070" points="103.5,-296.1 100,-286.1 96.5,-296.1 103.5,-296.1"/>
</g>
<!-- 130.117.0.134 -->
<g id="node5" class="node">
<title>130.117.0.134</title>
<ellipse fill="#60baba" stroke="black" cx="100" cy="-196" rx="61.99" ry="18"/>
<text text-anchor="middle" x="100" y="-192.3" font-family="Times,serif" font-size="14.00">130.117.0.134</text>
</g>
<!-- 130.117.0.134&#45;&gt;130.117.0.134 -->
<g id="edge17" class="edge">
<title>130.117.0.134&#45;&gt;130.117.0.134</title>
<path fill="none" stroke="#a07070" d="M142.26,-209.2C162.22,-210.74 179.74,-206.34 179.74,-196 179.74,-187.44 167.72,-182.95 152.25,-182.53"/>
<polygon fill="#a07070" stroke="#a07070" points="152.16,-179.03 142.26,-182.8 152.34,-186.03 152.16,-179.03"/>
</g>
<!-- 149.11.124.74 -->
<g id="node7" class="node">
<title>149.11.124.74</title>
<ellipse fill="#60baba" stroke="black" cx="100" cy="-124" rx="61.99" ry="18"/>
<text text-anchor="middle" x="100" y="-120.3" font-family="Times,serif" font-size="14.00">149.11.124.74</text>
</g>
<!-- 130.117.0.134&#45;&gt;149.11.124.74 -->
<g id="edge18" class="edge">
<title>130.117.0.134&#45;&gt;149.11.124.74</title>
<path fill="none" stroke="#a07070" d="M100,-177.7C100,-169.98 100,-160.71 100,-152.11"/>
<polygon fill="#a07070" stroke="#a07070" points="103.5,-152.1 100,-142.1 96.5,-152.1 103.5,-152.1"/>
</g>
<!-- 154.54.38.206 -->
<g id="node6" class="node">
<title>154.54.38.206</title>
<ellipse fill="#60baba" stroke="black" cx="100" cy="-484" rx="61.99" ry="18"/>
<text text-anchor="middle" x="100" y="-480.3" font-family="Times,serif" font-size="14.00">154.54.38.206</text>
</g>
<!-- 154.54.61.222 -->
<g id="node9" class="node">
<title>154.54.61.222</title>
<ellipse fill="#60baba" stroke="black" cx="100" cy="-412" rx="61.99" ry="18"/>
<text text-anchor="middle" x="100" y="-408.3" font-family="Times,serif" font-size="14.00">154.54.61.222</text>
</g>
<!-- 154.54.38.206&#45;&gt;154.54.61.222 -->
<g id="edge13" class="edge">
<title>154.54.38.206&#45;&gt;154.54.61.222</title>
<path fill="none" stroke="#a07070" d="M100,-465.7C100,-457.98 100,-448.71 100,-440.11"/>
<polygon fill="#a07070" stroke="#a07070" points="103.5,-440.1 100,-430.1 96.5,-440.1 103.5,-440.1"/>
</g>
<!-- 77.88.55.60 80/tcp -->
<g id="node17" class="node">
<title>77.88.55.60 80/tcp</title>
<polygon fill="red" stroke="black" points="183.93,-26.54 183.93,-41.46 134.77,-52 65.23,-52 16.07,-41.46 16.07,-26.54 65.23,-16 134.77,-16 183.93,-26.54"/>
<text text-anchor="middle" x="100" y="-30.3" font-family="Times,serif" font-size="14.00">77.88.55.60 80/tcp</text>
</g>
<!-- 149.11.124.74&#45;&gt;77.88.55.60 80/tcp -->
<g id="edge19" class="edge">
<title>149.11.124.74&#45;&gt;77.88.55.60 80/tcp</title>
<path fill="none" stroke="#a07070" d="M100,-105.61C100,-93.24 100,-76.37 100,-62.22"/>
<polygon fill="#a07070" stroke="#a07070" points="103.5,-62.05 100,-52.05 96.5,-62.05 103.5,-62.05"/>
</g>
<!-- 154.54.62.250&#45;&gt;130.117.0.134 -->
<g id="edge16" class="edge">
<title>154.54.62.250&#45;&gt;130.117.0.134</title>
<path fill="none" stroke="#a07070" d="M100,-249.7C100,-241.98 100,-232.71 100,-224.11"/>
<polygon fill="#a07070" stroke="#a07070" points="103.5,-224.1 100,-214.1 96.5,-224.1 103.5,-224.1"/>
</g>
<!-- 154.54.61.222&#45;&gt;154.54.61.242 -->
<g id="edge14" class="edge">
<title>154.54.61.222&#45;&gt;154.54.61.242</title>
<path fill="none" stroke="#a07070" d="M100,-393.7C100,-385.98 100,-376.71 100,-368.11"/>
<polygon fill="#a07070" stroke="#a07070" points="103.5,-368.1 100,-358.1 96.5,-368.1 103.5,-368.1"/>
</g>
<!-- 154.54.7.130 -->
<g id="node10" class="node">
<title>154.54.7.130</title>
<ellipse fill="#60baba" stroke="black" cx="100" cy="-772" rx="57.69" ry="18"/>
<text text-anchor="middle" x="100" y="-768.3" font-family="Times,serif" font-size="14.00">154.54.7.130</text>
</g>
<!-- 154.54.47.50 -->
<g id="node12" class="node">
<title>154.54.47.50</title>
<ellipse fill="#60baba" stroke="black" cx="100" cy="-700" rx="57.69" ry="18"/>
<text text-anchor="middle" x="100" y="-696.3" font-family="Times,serif" font-size="14.00">154.54.47.50</text>
</g>
<!-- 154.54.7.130&#45;&gt;154.54.47.50 -->
<g id="edge9" class="edge">
<title>154.54.7.130&#45;&gt;154.54.47.50</title>
<path fill="none" stroke="#a07070" d="M100,-753.7C100,-745.98 100,-736.71 100,-728.11"/>
<polygon fill="#a07070" stroke="#a07070" points="103.5,-728.1 100,-718.1 96.5,-728.1 103.5,-728.1"/>
</g>
<!-- 154.54.81.61 -->
<g id="node11" class="node">
<title>154.54.81.61</title>
<ellipse fill="#60baba" stroke="black" cx="100" cy="-844" rx="57.69" ry="18"/>
<text text-anchor="middle" x="100" y="-840.3" font-family="Times,serif" font-size="14.00">154.54.81.61</text>
</g>
<!-- 154.54.81.61&#45;&gt;154.54.7.130 -->
<g id="edge8" class="edge">
<title>154.54.81.61&#45;&gt;154.54.7.130</title>
<path fill="none" stroke="#a07070" d="M100,-825.7C100,-817.98 100,-808.71 100,-800.11"/>
<polygon fill="#a07070" stroke="#a07070" points="103.5,-800.1 100,-790.1 96.5,-800.1 103.5,-800.1"/>
</g>
<!-- 154.54.42.86 -->
<g id="node15" class="node">
<title>154.54.42.86</title>
<ellipse fill="#60baba" stroke="black" cx="100" cy="-628" rx="57.69" ry="18"/>
<text text-anchor="middle" x="100" y="-624.3" font-family="Times,serif" font-size="14.00">154.54.42.86</text>
</g>
<!-- 154.54.47.50&#45;&gt;154.54.42.86 -->
<g id="edge10" class="edge">
<title>154.54.47.50&#45;&gt;154.54.42.86</title>
<path fill="none" stroke="#a07070" d="M100,-681.7C100,-673.98 100,-664.71 100,-656.11"/>
<polygon fill="#a07070" stroke="#a07070" points="103.5,-656.1 100,-646.1 96.5,-656.1 103.5,-656.1"/>
</g>
<!-- 154.24.64.25 -->
<g id="node16" class="node">
<title>154.24.64.25</title>
<ellipse fill="#60baba" stroke="black" cx="100" cy="-916" rx="57.69" ry="18"/>
<text text-anchor="middle" x="100" y="-912.3" font-family="Times,serif" font-size="14.00">154.24.64.25</text>
</g>
<!-- 38.104.103.9&#45;&gt;154.24.64.25 -->
<g id="edge6" class="edge">
<title>38.104.103.9&#45;&gt;154.24.64.25</title>
<path fill="none" stroke="#a07070" d="M100,-969.7C100,-961.98 100,-952.71 100,-944.11"/>
<polygon fill="#a07070" stroke="#a07070" points="103.5,-944.1 100,-934.1 96.5,-944.1 103.5,-944.1"/>
</g>
<!-- 130.117.51.42 -->
<g id="node14" class="node">
<title>130.117.51.42</title>
<ellipse fill="#60baba" stroke="black" cx="100" cy="-556" rx="61.99" ry="18"/>
<text text-anchor="middle" x="100" y="-552.3" font-family="Times,serif" font-size="14.00">130.117.51.42</text>
</g>
<!-- 130.117.51.42&#45;&gt;154.54.38.206 -->
<g id="edge12" class="edge">
<title>130.117.51.42&#45;&gt;154.54.38.206</title>
<path fill="none" stroke="#a07070" d="M100,-537.7C100,-529.98 100,-520.71 100,-512.11"/>
<polygon fill="#a07070" stroke="#a07070" points="103.5,-512.1 100,-502.1 96.5,-512.1 103.5,-512.1"/>
</g>
<!-- 154.54.42.86&#45;&gt;130.117.51.42 -->
<g id="edge11" class="edge">
<title>154.54.42.86&#45;&gt;130.117.51.42</title>
<path fill="none" stroke="#a07070" d="M100,-609.7C100,-601.98 100,-592.71 100,-584.11"/>
<polygon fill="#a07070" stroke="#a07070" points="103.5,-584.1 100,-574.1 96.5,-584.1 103.5,-584.1"/>
</g>
<!-- 154.24.64.25&#45;&gt;154.54.81.61 -->
<g id="edge7" class="edge">
<title>154.24.64.25&#45;&gt;154.54.81.61</title>
<path fill="none" stroke="#a07070" d="M100,-897.7C100,-889.98 100,-880.71 100,-872.11"/>
<polygon fill="#a07070" stroke="#a07070" points="103.5,-872.1 100,-862.1 96.5,-872.1 103.5,-872.1"/>
</g>
<!-- 10.150.0.2 -->
<g id="node18" class="node">
<title>10.150.0.2</title>
<ellipse fill="none" stroke="black" cx="242" cy="-1232" rx="48.99" ry="18"/>
<text text-anchor="middle" x="242" y="-1228.3" font-family="Times,serif" font-size="14.00">10.150.0.2</text>
</g>
<!-- 10.150.0.2&#45;&gt;128.135.98.2 -->
<g id="edge1" class="edge">
<title>10.150.0.2&#45;&gt;128.135.98.2</title>
<path fill="none" stroke="#a07070" d="M242,-1213.64C242,-1203.3 242,-1189.94 242,-1178.22"/>
<polygon fill="#a07070" stroke="#a07070" points="245.5,-1178.05 242,-1168.05 238.5,-1178.05 245.5,-1178.05"/>
</g>
<!-- 10.5.1.32&#45;&gt;192.170.192.51 -->
<g id="edge3" class="edge">
<title>10.5.1.32&#45;&gt;192.170.192.51</title>
<path fill="none" stroke="#a07070" d="M328.38,-1090.68C322.95,-1092.55 317.33,-1094.39 312,-1096 283.51,-1104.59 210.31,-1122.55 157.91,-1135.18"/>
<polygon fill="#a07070" stroke="#a07070" points="156.96,-1131.81 148.06,-1137.55 158.6,-1138.61 156.96,-1131.81"/>
</g>
</g>
</svg>
