<?xml version="1.0" encoding="UTF-8" standalone="no"?>
<!DOCTYPE svg PUBLIC "-//W3C//DTD SVG 1.1//EN"
 "http://www.w3.org/Graphics/SVG/1.1/DTD/svg11.dtd">
<!-- Generated by graphviz version 3.0.0 (20220226.1711)
 -->
<!-- Title: trace Pages: 1 -->
<svg width="722pt" height="1298pt"
 viewBox="0.00 0.00 722.00 1298.00" xmlns="http://www.w3.org/2000/svg" xmlns:xlink="http://www.w3.org/1999/xlink">
<g id="graph0" class="graph" transform="scale(1 1) rotate(0) translate(4 1294)">
<title>trace</title>
<polygon fill="white" stroke="transparent" points="-4,4 -4,-1294 718,-1294 718,4 -4,4"/>
<g id="clust1" class="cluster">
<title>cluster_AS174</title>
<polygon fill="none" stroke="#608686" stroke-width="2.5" points="30,-170 30,-1084 446,-1084 446,-170 30,-170"/>
<text text-anchor="middle" x="238" y="-1072" font-family="Times,serif" font-size="10.00">AS174</text>
<text text-anchor="middle" x="238" y="-1061" font-family="Times,serif" font-size="10.00">[COGENT&#45;174, US]</text>
</g>
<g id="clust2" class="cluster">
<title>cluster_AS13238</title>
<polygon fill="none" stroke="#60baba" stroke-width="2.5" points="8,-8 8,-162 192,-162 192,-8 8,-8"/>
<text text-anchor="middle" x="100" y="-150" font-family="Times,serif" font-size="10.00">AS13238</text>
<text text-anchor="middle" x="100" y="-139" font-family="Times,serif" font-size="10.00">[Yandex network]</text>
</g>
<g id="clust3" class="cluster">
<title>cluster_AS198949</title>
<polygon fill="none" stroke="#60ffff" stroke-width="2.5" points="164,-1092 164,-1246 446,-1246 446,-1092 164,-1092"/>
<text text-anchor="middle" x="305" y="-1234" font-family="Times,serif" font-size="10.00">AS198949</text>
<text text-anchor="middle" x="305" y="-1223" font-family="Times,serif" font-size="10.00">[BTAA_UNIVERSITY_OF_CHICAGO]</text>
</g>
<g id="clust4" class="cluster">
<title>cluster_AS54113</title>
<polygon fill="none" stroke="#868660" stroke-width="2.5" points="522,-631 522,-714 706,-714 706,-631 522,-631"/>
<text text-anchor="middle" x="614" y="-702" font-family="Times,serif" font-size="10.00">AS54113</text>
<text text-anchor="middle" x="614" y="-691" font-family="Times,serif" font-size="10.00">[Fastly]</text>
</g>
<g id="clust5" class="cluster">
<title>cluster_AS8075</title>
<polygon fill="none" stroke="#86ba86" stroke-width="2.5" points="461,-541 461,-623 609,-623 609,-541 461,-541"/>
<text text-anchor="middle" x="535" y="-611" font-family="Times,serif" font-size="10.00">AS8075</text>
<text text-anchor="middle" x="535" y="-600" font-family="Times,serif" font-size="10.00">[MICROSOFT]</text>
</g>
<g id="clust6" class="cluster">
<title>cluster_AS8068</title>
<polygon fill="none" stroke="#86ffba" stroke-width="2.5" points="454,-242 454,-325 626,-325 626,-242 454,-242"/>
<text text-anchor="middle" x="540" y="-313" font-family="Times,serif" font-size="10.00">AS8068</text>
<text text-anchor="middle" x="540" y="-302" font-family="Times,serif" font-size="10.00">[Microsoft]</text>
</g>
<!-- 154.54.61.238 -->
<g id="node1" class="node">
<title>154.54.61.238</title>
<ellipse fill="#ffffff" stroke="black" cx="100" cy="-423" rx="61.99" ry="18"/>
<text text-anchor="middle" x="100" y="-419.3" font-family="Times,serif" font-size="14.00">154.54.61.238</text>
</g>
<!-- 154.54.62.254 -->
<g id="node15" class="node">
<title>154.54.62.254</title>
<ellipse fill="#ffffff" stroke="black" cx="100" cy="-351" rx="61.99" ry="18"/>
<text text-anchor="middle" x="100" y="-347.3" font-family="Times,serif" font-size="14.00">154.54.62.254</text>
</g>
<!-- 154.54.61.238&#45;&gt;154.54.62.254 -->
<g id="edge15" class="edge">
<title>154.54.61.238&#45;&gt;154.54.62.254</title>
<path fill="none" stroke="#a07070" d="M100,-404.7C100,-396.98 100,-387.71 100,-379.11"/>
<polygon fill="#a07070" stroke="#a07070" points="103.5,-379.1 100,-369.1 96.5,-379.1 103.5,-379.1"/>
</g>
<!-- 154.54.81.61 -->
<g id="node2" class="node">
<title>154.54.81.61</title>
<ellipse fill="#ffffff" stroke="black" cx="238" cy="-884" rx="57.69" ry="18"/>
<text text-anchor="middle" x="238" y="-880.3" font-family="Times,serif" font-size="14.00">154.54.81.61</text>
</g>
<!-- 154.54.45.18 -->
<g id="node4" class="node">
<title>154.54.45.18</title>
<ellipse fill="#ffffff" stroke="black" cx="234" cy="-812" rx="57.69" ry="18"/>
<text text-anchor="middle" x="234" y="-808.3" font-family="Times,serif" font-size="14.00">154.54.45.18</text>
</g>
<!-- 154.54.81.61&#45;&gt;154.54.45.18 -->
<g id="edge27" class="edge">
<title>154.54.81.61&#45;&gt;154.54.45.18</title>
<path fill="none" stroke="#a04040" d="M237.01,-865.7C236.57,-857.98 236.04,-848.71 235.55,-840.11"/>
<polygon fill="#a04040" stroke="#a04040" points="239.04,-839.89 234.98,-830.1 232.05,-840.29 239.04,-839.89"/>
</g>
<!-- 154.54.46.178 -->
<g id="node3" class="node">
<title>154.54.46.178</title>
<ellipse fill="#ffffff" stroke="black" cx="374" cy="-812" rx="61.99" ry="18"/>
<text text-anchor="middle" x="374" y="-808.3" font-family="Times,serif" font-size="14.00">154.54.46.178</text>
</g>
<!-- 38.104.107.130 -->
<g id="node10" class="node">
<title>38.104.107.130</title>
<ellipse fill="#14a045" stroke="black" cx="372" cy="-740" rx="66.09" ry="18"/>
<text text-anchor="middle" x="372" y="-736.3" font-family="Times,serif" font-size="14.00">38.104.107.130</text>
</g>
<!-- 154.54.46.178&#45;&gt;38.104.107.130 -->
<g id="edge43" class="edge">
<title>154.54.46.178&#45;&gt;38.104.107.130</title>
<path fill="none" stroke="#a02020" d="M373.51,-793.7C373.29,-785.98 373.02,-776.71 372.77,-768.11"/>
<polygon fill="#a02020" stroke="#a02020" points="376.27,-768 372.49,-758.1 369.28,-768.2 376.27,-768"/>
</g>
<!-- 38.32.97.242 -->
<g id="node8" class="node">
<title>38.32.97.242</title>
<ellipse fill="#14a045" stroke="black" cx="230" cy="-740" rx="57.69" ry="18"/>
<text text-anchor="middle" x="230" y="-736.3" font-family="Times,serif" font-size="14.00">38.32.97.242</text>
</g>
<!-- 154.54.45.18&#45;&gt;38.32.97.242 -->
<g id="edge28" class="edge">
<title>154.54.45.18&#45;&gt;38.32.97.242</title>
<path fill="none" stroke="#a04040" d="M233.01,-793.7C232.57,-785.98 232.04,-776.71 231.55,-768.11"/>
<polygon fill="#a04040" stroke="#a04040" points="235.04,-767.89 230.98,-758.1 228.05,-768.29 235.04,-767.89"/>
</g>
<!-- 149.11.124.74 -->
<g id="node5" class="node">
<title>149.11.124.74</title>
<ellipse fill="#14a045" stroke="black" cx="100" cy="-196" rx="61.99" ry="18"/>
<text text-anchor="middle" x="100" y="-192.3" font-family="Times,serif" font-size="14.00">149.11.124.74</text>
</g>
<!-- 87.250.239.233 -->
<g id="node21" class="node">
<title>87.250.239.233</title>
<ellipse fill="#14a045" stroke="black" cx="100" cy="-106" rx="66.09" ry="18"/>
<text text-anchor="middle" x="100" y="-102.3" font-family="Times,serif" font-size="14.00">87.250.239.233</text>
</g>
<!-- 149.11.124.74&#45;&gt;87.250.239.233 -->
<g id="edge18" class="edge">
<title>149.11.124.74&#45;&gt;87.250.239.233</title>
<path fill="none" stroke="#a07070" d="M100,-177.61C100,-165.24 100,-148.37 100,-134.22"/>
<polygon fill="#a07070" stroke="#a07070" points="103.5,-134.05 100,-124.05 96.5,-134.05 103.5,-134.05"/>
</g>
<!-- 154.54.81.109 -->
<g id="node6" class="node">
<title>154.54.81.109</title>
<ellipse fill="#ffffff" stroke="black" cx="100" cy="-884" rx="61.99" ry="18"/>
<text text-anchor="middle" x="100" y="-880.3" font-family="Times,serif" font-size="14.00">154.54.81.109</text>
</g>
<!-- 154.54.6.222 -->
<g id="node17" class="node">
<title>154.54.6.222</title>
<ellipse fill="#ffffff" stroke="black" cx="97" cy="-812" rx="57.69" ry="18"/>
<text text-anchor="middle" x="97" y="-808.3" font-family="Times,serif" font-size="14.00">154.54.6.222</text>
</g>
<!-- 154.54.81.109&#45;&gt;154.54.6.222 -->
<g id="edge8" class="edge">
<title>154.54.81.109&#45;&gt;154.54.6.222</title>
<path fill="none" stroke="#a07070" d="M99.26,-865.7C98.93,-857.98 98.53,-848.71 98.16,-840.11"/>
<polygon fill="#a07070" stroke="#a07070" points="101.66,-839.95 97.73,-830.1 94.66,-840.25 101.66,-839.95"/>
</g>
<!-- 154.54.47.50 -->
<g id="node7" class="node">
<title>154.54.47.50</title>
<ellipse fill="#ffffff" stroke="black" cx="96" cy="-740" rx="57.69" ry="18"/>
<text text-anchor="middle" x="96" y="-736.3" font-family="Times,serif" font-size="14.00">154.54.47.50</text>
</g>
<!-- 154.54.42.86 -->
<g id="node11" class="node">
<title>154.54.42.86</title>
<ellipse fill="#ffffff" stroke="black" cx="98" cy="-657.5" rx="57.69" ry="18"/>
<text text-anchor="middle" x="98" y="-653.8" font-family="Times,serif" font-size="14.00">154.54.42.86</text>
</g>
<!-- 154.54.47.50&#45;&gt;154.54.42.86 -->
<g id="edge10" class="edge">
<title>154.54.47.50&#45;&gt;154.54.42.86</title>
<path fill="none" stroke="#a07070" d="M96.42,-721.93C96.68,-711.47 97.02,-697.84 97.32,-685.9"/>
<polygon fill="#a07070" stroke="#a07070" points="100.83,-685.63 97.58,-675.55 93.83,-685.46 100.83,-685.63"/>
</g>
<!-- unk0 -->
<g id="node30" class="node">
<title>unk0</title>
<ellipse fill="#bfbfbf" stroke="black" cx="483" cy="-657.5" rx="28.7" ry="18"/>
<text text-anchor="middle" x="483" y="-653.8" font-family="Times,serif" font-size="14.00">unk0</text>
</g>
<!-- 38.32.97.242&#45;&gt;unk0 -->
<g id="edge29" class="edge">
<title>38.32.97.242&#45;&gt;unk0</title>
<path fill="none" stroke="#a04040" d="M271.2,-727.2C279.67,-725.15 288.58,-723.28 297,-722 313.83,-719.45 435.43,-722.8 450,-714 460.98,-707.37 468.74,-695.57 473.97,-684.55"/>
<polygon fill="#a04040" stroke="#a04040" points="477.24,-685.79 477.92,-675.22 470.8,-683.06 477.24,-685.79"/>
</g>
<!-- 130.117.0.134 -->
<g id="node9" class="node">
<title>130.117.0.134</title>
<ellipse fill="#ffffff" stroke="black" cx="100" cy="-268.5" rx="61.99" ry="18"/>
<text text-anchor="middle" x="100" y="-264.8" font-family="Times,serif" font-size="14.00">130.117.0.134</text>
</g>
<!-- 130.117.0.134&#45;&gt;149.11.124.74 -->
<g id="edge17" class="edge">
<title>130.117.0.134&#45;&gt;149.11.124.74</title>
<path fill="none" stroke="#a07070" d="M100,-250.43C100,-242.67 100,-233.28 100,-224.56"/>
<polygon fill="#a07070" stroke="#a07070" points="103.5,-224.4 100,-214.4 96.5,-224.4 103.5,-224.4"/>
</g>
<!-- 151.101.129.140 -->
<g id="node25" class="node">
<title>151.101.129.140</title>
<polygon fill="#ffffff" stroke="black" points="530,-639.5 530,-675.5 698,-675.5 698,-639.5 530,-639.5"/>
<text text-anchor="middle" x="584.5" y="-653.8" font-family="Times,serif" font-size="14.00">151.101.129.140</text>
<polyline fill="none" stroke="black" points="639,-639.5 639,-675.5 "/>
<text text-anchor="middle" x="668.5" y="-653.8" font-family="Times,serif" font-size="14.00">http SA</text>
</g>
<!-- 38.104.107.130&#45;&gt;151.101.129.140 -->
<g id="edge44" class="edge">
<title>38.104.107.130&#45;&gt;151.101.129.140:T80</title>
<path fill="none" stroke="#a02020" d="M438.28,-738.18C519.32,-735.48 648.05,-725.05 666.72,-686.36"/>
<polygon fill="#a02020" stroke="#a02020" points="670.15,-687.03 669,-676.5 663.33,-685.45 670.15,-687.03"/>
</g>
<!-- 130.117.51.42 -->
<g id="node12" class="node">
<title>130.117.51.42</title>
<ellipse fill="#ffffff" stroke="black" cx="100" cy="-567" rx="61.99" ry="18"/>
<text text-anchor="middle" x="100" y="-563.3" font-family="Times,serif" font-size="14.00">130.117.51.42</text>
</g>
<!-- 154.54.42.86&#45;&gt;130.117.51.42 -->
<g id="edge11" class="edge">
<title>154.54.42.86&#45;&gt;130.117.51.42</title>
<path fill="none" stroke="#a07070" d="M98.39,-639.44C98.67,-626.95 99.06,-609.74 99.38,-595.35"/>
<polygon fill="#a07070" stroke="#a07070" points="102.89,-595.09 99.62,-585.01 95.89,-594.93 102.89,-595.09"/>
</g>
<!-- 154.54.38.210 -->
<g id="node13" class="node">
<title>154.54.38.210</title>
<ellipse fill="#ffffff" stroke="black" cx="100" cy="-495" rx="61.99" ry="18"/>
<text text-anchor="middle" x="100" y="-491.3" font-family="Times,serif" font-size="14.00">154.54.38.210</text>
</g>
<!-- 130.117.51.42&#45;&gt;154.54.38.210 -->
<g id="edge12" class="edge">
<title>130.117.51.42&#45;&gt;154.54.38.210</title>
<path fill="none" stroke="#a07070" d="M100,-548.7C100,-540.98 100,-531.71 100,-523.11"/>
<polygon fill="#a07070" stroke="#a07070" points="103.5,-523.1 100,-513.1 96.5,-523.1 103.5,-523.1"/>
</g>
<!-- 154.54.38.210&#45;&gt;154.54.61.238 -->
<g id="edge14" class="edge">
<title>154.54.38.210&#45;&gt;154.54.61.238</title>
<path fill="none" stroke="#a07070" d="M100,-476.7C100,-468.98 100,-459.71 100,-451.11"/>
<polygon fill="#a07070" stroke="#a07070" points="103.5,-451.1 100,-441.1 96.5,-451.1 103.5,-451.1"/>
</g>
<!-- 154.54.38.210&#45;&gt;154.54.38.210 -->
<g id="edge13" class="edge">
<title>154.54.38.210&#45;&gt;154.54.38.210</title>
<path fill="none" stroke="#a07070" d="M142.26,-508.2C162.22,-509.74 179.74,-505.34 179.74,-495 179.74,-486.44 167.72,-481.95 152.25,-481.53"/>
<polygon fill="#a07070" stroke="#a07070" points="152.16,-478.03 142.26,-481.8 152.34,-485.03 152.16,-478.03"/>
</g>
<!-- 154.54.81.101 -->
<g id="node14" class="node">
<title>154.54.81.101</title>
<ellipse fill="#ffffff" stroke="black" cx="376" cy="-884" rx="61.99" ry="18"/>
<text text-anchor="middle" x="376" y="-880.3" font-family="Times,serif" font-size="14.00">154.54.81.101</text>
</g>
<!-- 154.54.81.101&#45;&gt;154.54.46.178 -->
<g id="edge42" class="edge">
<title>154.54.81.101&#45;&gt;154.54.46.178</title>
<path fill="none" stroke="#a02020" d="M375.51,-865.7C375.29,-857.98 375.02,-848.71 374.77,-840.11"/>
<polygon fill="#a02020" stroke="#a02020" points="378.27,-840 374.49,-830.1 371.28,-840.2 378.27,-840"/>
</g>
<!-- 154.54.62.254&#45;&gt;130.117.0.134 -->
<g id="edge16" class="edge">
<title>154.54.62.254&#45;&gt;130.117.0.134</title>
<path fill="none" stroke="#a07070" d="M100,-332.93C100,-322.47 100,-308.84 100,-296.9"/>
<polygon fill="#a07070" stroke="#a07070" points="103.5,-296.55 100,-286.55 96.5,-296.55 103.5,-296.55"/>
</g>
<!-- 38.104.103.9 -->
<g id="node16" class="node">
<title>38.104.103.9</title>
<ellipse fill="#ffffff" stroke="black" cx="238" cy="-1028" rx="57.69" ry="18"/>
<text text-anchor="middle" x="238" y="-1024.3" font-family="Times,serif" font-size="14.00">38.104.103.9</text>
</g>
<!-- 154.24.64.29 -->
<g id="node18" class="node">
<title>154.24.64.29</title>
<ellipse fill="#ffffff" stroke="black" cx="238" cy="-956" rx="57.69" ry="18"/>
<text text-anchor="middle" x="238" y="-952.3" font-family="Times,serif" font-size="14.00">154.24.64.29</text>
</g>
<!-- 38.104.103.9&#45;&gt;154.24.64.29 -->
<g id="edge25" class="edge">
<title>38.104.103.9&#45;&gt;154.24.64.29</title>
<path fill="none" stroke="#a04040" d="M232.12,-1010.05C231.3,-1002.35 231.06,-993.03 231.39,-984.36"/>
<polygon fill="#a04040" stroke="#a04040" points="234.89,-984.49 232.09,-974.28 227.91,-984.01 234.89,-984.49"/>
</g>
<!-- 38.104.103.9&#45;&gt;154.24.64.29 -->
<g id="edge40" class="edge">
<title>38.104.103.9&#45;&gt;154.24.64.29</title>
<path fill="none" stroke="#a02020" d="M243.88,-1010.05C244.7,-1002.35 244.94,-993.03 244.61,-984.36"/>
<polygon fill="#a02020" stroke="#a02020" points="248.09,-984.01 243.91,-974.28 241.11,-984.49 248.09,-984.01"/>
</g>
<!-- 154.24.64.25 -->
<g id="node19" class="node">
<title>154.24.64.25</title>
<ellipse fill="#ffffff" stroke="black" cx="102" cy="-956" rx="57.69" ry="18"/>
<text text-anchor="middle" x="102" y="-952.3" font-family="Times,serif" font-size="14.00">154.24.64.25</text>
</g>
<!-- 38.104.103.9&#45;&gt;154.24.64.25 -->
<g id="edge6" class="edge">
<title>38.104.103.9&#45;&gt;154.24.64.25</title>
<path fill="none" stroke="#a07070" d="M209.49,-1012.33C189.32,-1001.94 162.05,-987.91 140.02,-976.57"/>
<polygon fill="#a07070" stroke="#a07070" points="141.43,-973.36 130.94,-971.9 138.23,-979.58 141.43,-973.36"/>
</g>
<!-- 154.54.6.222&#45;&gt;154.54.47.50 -->
<g id="edge9" class="edge">
<title>154.54.6.222&#45;&gt;154.54.47.50</title>
<path fill="none" stroke="#a07070" d="M96.75,-793.7C96.64,-785.98 96.51,-776.71 96.39,-768.11"/>
<polygon fill="#a07070" stroke="#a07070" points="99.89,-768.05 96.24,-758.1 92.89,-768.15 99.89,-768.05"/>
</g>
<!-- 154.24.64.29&#45;&gt;154.54.81.61 -->
<g id="edge26" class="edge">
<title>154.24.64.29&#45;&gt;154.54.81.61</title>
<path fill="none" stroke="#a04040" d="M238,-937.7C238,-929.98 238,-920.71 238,-912.11"/>
<polygon fill="#a04040" stroke="#a04040" points="241.5,-912.1 238,-902.1 234.5,-912.1 241.5,-912.1"/>
</g>
<!-- 154.24.64.29&#45;&gt;154.54.81.101 -->
<g id="edge41" class="edge">
<title>154.24.64.29&#45;&gt;154.54.81.101</title>
<path fill="none" stroke="#a02020" d="M266.93,-940.33C287.4,-929.94 315.07,-915.91 337.42,-904.57"/>
<polygon fill="#a02020" stroke="#a02020" points="339.3,-907.54 346.63,-899.9 336.13,-901.3 339.3,-907.54"/>
</g>
<!-- 154.24.64.25&#45;&gt;154.54.81.109 -->
<g id="edge7" class="edge">
<title>154.24.64.25&#45;&gt;154.54.81.109</title>
<path fill="none" stroke="#a07070" d="M101.51,-937.7C101.29,-929.98 101.02,-920.71 100.77,-912.11"/>
<polygon fill="#a07070" stroke="#a07070" points="104.27,-912 100.49,-902.1 97.28,-912.2 104.27,-912"/>
</g>
<!-- 77.88.55.50 80/tcp -->
<g id="node20" class="node">
<title>77.88.55.50 80/tcp</title>
<polygon fill="red" stroke="black" points="183.93,-26.54 183.93,-41.46 134.77,-52 65.23,-52 16.07,-41.46 16.07,-26.54 65.23,-16 134.77,-16 183.93,-26.54"/>
<text text-anchor="middle" x="100" y="-30.3" font-family="Times,serif" font-size="14.00">77.88.55.50 80/tcp</text>
</g>
<!-- 87.250.239.233&#45;&gt;77.88.55.50 80/tcp -->
<g id="edge19" class="edge">
<title>87.250.239.233&#45;&gt;77.88.55.50 80/tcp</title>
<path fill="none" stroke="#a07070" d="M100,-87.7C100,-79.98 100,-70.71 100,-62.11"/>
<polygon fill="#a07070" stroke="#a07070" points="103.5,-62.1 100,-52.1 96.5,-62.1 103.5,-62.1"/>
</g>
<!-- 192.170.192.51 -->
<g id="node22" class="node">
<title>192.170.192.51</title>
<ellipse fill="#14a045" stroke="black" cx="238" cy="-1190" rx="66.09" ry="18"/>
<text text-anchor="middle" x="238" y="-1186.3" font-family="Times,serif" font-size="14.00">192.170.192.51</text>
</g>
<!-- 192.170.192.38 -->
<g id="node24" class="node">
<title>192.170.192.38</title>
<ellipse fill="#14a045" stroke="black" cx="238" cy="-1118" rx="66.09" ry="18"/>
<text text-anchor="middle" x="238" y="-1114.3" font-family="Times,serif" font-size="14.00">192.170.192.38</text>
</g>
<!-- 192.170.192.51&#45;&gt;192.170.192.38 -->
<g id="edge4" class="edge">
<title>192.170.192.51&#45;&gt;192.170.192.38</title>
<path fill="none" stroke="#a07070" d="M226.24,-1172.05C224.56,-1164.14 224.1,-1154.54 224.84,-1145.69"/>
<polygon fill="#a07070" stroke="#a07070" points="228.31,-1146.19 226.28,-1135.79 221.38,-1145.18 228.31,-1146.19"/>
</g>
<!-- 192.170.192.51&#45;&gt;192.170.192.38 -->
<g id="edge23" class="edge">
<title>192.170.192.51&#45;&gt;192.170.192.38</title>
<path fill="none" stroke="#a04040" d="M238,-1171.7C238,-1163.98 238,-1154.71 238,-1146.11"/>
<polygon fill="#a04040" stroke="#a04040" points="241.5,-1146.1 238,-1136.1 234.5,-1146.1 241.5,-1146.1"/>
</g>
<!-- 192.170.192.51&#45;&gt;192.170.192.38 -->
<g id="edge38" class="edge">
<title>192.170.192.51&#45;&gt;192.170.192.38</title>
<path fill="none" stroke="#a02020" d="M249.76,-1172.05C251.44,-1164.14 251.9,-1154.54 251.16,-1145.69"/>
<polygon fill="#a02020" stroke="#a02020" points="254.62,-1145.18 249.72,-1135.79 247.69,-1146.19 254.62,-1145.18"/>
</g>
<!-- 128.135.98.2 -->
<g id="node23" class="node">
<title>128.135.98.2</title>
<ellipse fill="#14a045" stroke="black" cx="380" cy="-1190" rx="57.69" ry="18"/>
<text text-anchor="middle" x="380" y="-1186.3" font-family="Times,serif" font-size="14.00">128.135.98.2</text>
</g>
<!-- 10.5.1.32 -->
<g id="node29" class="node">
<title>10.5.1.32</title>
<ellipse fill="#bfbfbf" stroke="black" cx="498" cy="-1118" rx="44.39" ry="18"/>
<text text-anchor="middle" x="498" y="-1114.3" font-family="Times,serif" font-size="14.00">10.5.1.32</text>
</g>
<!-- 128.135.98.2&#45;&gt;10.5.1.32 -->
<g id="edge2" class="edge">
<title>128.135.98.2&#45;&gt;10.5.1.32</title>
<path fill="none" stroke="#a07070" d="M396.02,-1172.59C412.21,-1161.54 436.68,-1147 457.85,-1135.85"/>
<polygon fill="#a07070" stroke="#a07070" points="459.7,-1138.84 467,-1131.15 456.5,-1132.61 459.7,-1138.84"/>
</g>
<!-- 128.135.98.2&#45;&gt;10.5.1.32 -->
<g id="edge21" class="edge">
<title>128.135.98.2&#45;&gt;10.5.1.32</title>
<path fill="none" stroke="#a04040" d="M405.6,-1173.81C423.08,-1163.44 446.38,-1149.62 465.21,-1138.45"/>
<polygon fill="#a04040" stroke="#a04040" points="467.24,-1141.32 474.05,-1133.21 463.67,-1135.3 467.24,-1141.32"/>
</g>
<!-- 128.135.98.2&#45;&gt;10.5.1.32 -->
<g id="edge36" class="edge">
<title>128.135.98.2&#45;&gt;10.5.1.32</title>
<path fill="none" stroke="#a02020" d="M413.99,-1175.34C433.26,-1165.51 456.48,-1152.06 473.92,-1140.76"/>
<polygon fill="#a02020" stroke="#a02020" points="476.07,-1143.53 482.46,-1135.08 472.19,-1137.71 476.07,-1143.53"/>
</g>
<!-- 192.170.192.38&#45;&gt;38.104.103.9 -->
<g id="edge5" class="edge">
<title>192.170.192.38&#45;&gt;38.104.103.9</title>
<path fill="none" stroke="#a07070" d="M227.08,-1100.03C224.34,-1087.62 223.78,-1070.51 225.42,-1056.19"/>
<polygon fill="#a07070" stroke="#a07070" points="228.94,-1056.35 227.1,-1045.92 222.03,-1055.22 228.94,-1056.35"/>
</g>
<!-- 192.170.192.38&#45;&gt;38.104.103.9 -->
<g id="edge24" class="edge">
<title>192.170.192.38&#45;&gt;38.104.103.9</title>
<path fill="none" stroke="#a04040" d="M238,-1099.61C238,-1087.24 238,-1070.37 238,-1056.22"/>
<polygon fill="#a04040" stroke="#a04040" points="241.5,-1056.05 238,-1046.05 234.5,-1056.05 241.5,-1056.05"/>
</g>
<!-- 192.170.192.38&#45;&gt;38.104.103.9 -->
<g id="edge39" class="edge">
<title>192.170.192.38&#45;&gt;38.104.103.9</title>
<path fill="none" stroke="#a02020" d="M248.92,-1100.03C251.66,-1087.62 252.22,-1070.51 250.58,-1056.19"/>
<polygon fill="#a02020" stroke="#a02020" points="253.97,-1055.22 248.9,-1045.92 247.06,-1056.35 253.97,-1055.22"/>
</g>
<!-- 13.104.141.104 -->
<g id="node26" class="node">
<title>13.104.141.104</title>
<ellipse fill="#14a045" stroke="black" cx="535" cy="-567" rx="66.09" ry="18"/>
<text text-anchor="middle" x="535" y="-563.3" font-family="Times,serif" font-size="14.00">13.104.141.104</text>
</g>
<!-- unk1 -->
<g id="node31" class="node">
<title>unk1</title>
<ellipse fill="#bfbfbf" stroke="black" cx="539" cy="-495" rx="28.7" ry="18"/>
<text text-anchor="middle" x="539" y="-491.3" font-family="Times,serif" font-size="14.00">unk1</text>
</g>
<!-- 13.104.141.104&#45;&gt;unk1 -->
<g id="edge31" class="edge">
<title>13.104.141.104&#45;&gt;unk1</title>
<path fill="none" stroke="#a04040" d="M535.99,-548.7C536.43,-540.98 536.96,-531.71 537.45,-523.11"/>
<polygon fill="#a04040" stroke="#a04040" points="540.95,-523.29 538.02,-513.1 533.96,-522.89 540.95,-523.29"/>
</g>
<!-- 13.107.42.14 -->
<g id="node27" class="node">
<title>13.107.42.14</title>
<polygon fill="#14a045" stroke="black" points="462,-250.5 462,-286.5 618,-286.5 618,-250.5 462,-250.5"/>
<text text-anchor="middle" x="506.5" y="-264.8" font-family="Times,serif" font-size="14.00">13.107.42.14</text>
<polyline fill="none" stroke="black" points="551,-250.5 551,-286.5 "/>
<text text-anchor="middle" x="584.5" y="-264.8" font-family="Times,serif" font-size="14.00">http SAE</text>
</g>
<!-- 10.150.0.2 -->
<g id="node28" class="node">
<title>10.150.0.2</title>
<ellipse fill="#bfbfbf" stroke="black" cx="380" cy="-1272" rx="48.99" ry="18"/>
<text text-anchor="middle" x="380" y="-1268.3" font-family="Times,serif" font-size="14.00">10.150.0.2</text>
</g>
<!-- 10.150.0.2&#45;&gt;128.135.98.2 -->
<g id="edge1" class="edge">
<title>10.150.0.2&#45;&gt;128.135.98.2</title>
<path fill="none" stroke="#a07070" d="M368.81,-1254.42C366.44,-1243.88 365.89,-1229.97 367.17,-1217.87"/>
<polygon fill="#a07070" stroke="#a07070" points="370.65,-1218.25 368.76,-1207.83 363.74,-1217.16 370.65,-1218.25"/>
</g>
<!-- 10.150.0.2&#45;&gt;128.135.98.2 -->
<g id="edge20" class="edge">
<title>10.150.0.2&#45;&gt;128.135.98.2</title>
<path fill="none" stroke="#a04040" d="M380,-1253.64C380,-1243.3 380,-1229.94 380,-1218.22"/>
<polygon fill="#a04040" stroke="#a04040" points="383.5,-1218.05 380,-1208.05 376.5,-1218.05 383.5,-1218.05"/>
</g>
<!-- 10.150.0.2&#45;&gt;128.135.98.2 -->
<g id="edge35" class="edge">
<title>10.150.0.2&#45;&gt;128.135.98.2</title>
<path fill="none" stroke="#a02020" d="M391.19,-1254.42C393.56,-1243.88 394.11,-1229.97 392.83,-1217.87"/>
<polygon fill="#a02020" stroke="#a02020" points="396.26,-1217.16 391.24,-1207.83 389.35,-1218.25 396.26,-1217.16"/>
</g>
<!-- 10.5.1.32&#45;&gt;192.170.192.51 -->
<g id="edge3" class="edge">
<title>10.5.1.32&#45;&gt;192.170.192.51</title>
<path fill="none" stroke="#a07070" d="M459.57,-1127.14C450.19,-1130.11 440.72,-1133.37 432,-1136 404.95,-1144.15 337.64,-1160.75 289.6,-1173.21"/>
<polygon fill="#a07070" stroke="#a07070" points="288.46,-1169.9 279.67,-1175.81 290.23,-1176.67 288.46,-1169.9"/>
</g>
<!-- 10.5.1.32&#45;&gt;192.170.192.51 -->
<g id="edge22" class="edge">
<title>10.5.1.32&#45;&gt;192.170.192.51</title>
<path fill="none" stroke="#a04040" d="M466.38,-1130.68C460.95,-1132.55 455.33,-1134.39 450,-1136 421.51,-1144.59 348.31,-1162.55 295.91,-1175.18"/>
<polygon fill="#a04040" stroke="#a04040" points="294.96,-1171.81 286.06,-1177.55 296.6,-1178.61 294.96,-1171.81"/>
</g>
<!-- 10.5.1.32&#45;&gt;192.170.192.51 -->
<g id="edge37" class="edge">
<title>10.5.1.32&#45;&gt;192.170.192.51</title>
<path fill="none" stroke="#a02020" d="M475.73,-1133.57C473.14,-1134.42 470.54,-1135.23 468,-1136 438.1,-1145.01 358.99,-1164.35 301.54,-1177"/>
<polygon fill="#a02020" stroke="#a02020" points="300.47,-1173.66 291.44,-1179.21 301.96,-1180.5 300.47,-1173.66"/>
</g>
<!-- unk0&#45;&gt;13.104.141.104 -->
<g id="edge30" class="edge">
<title>unk0&#45;&gt;13.104.141.104</title>
<path fill="none" stroke="#a04040" d="M492.54,-640.27C500.16,-627.29 510.99,-608.86 519.81,-593.85"/>
<polygon fill="#a04040" stroke="#a04040" points="522.94,-595.43 524.99,-585.03 516.91,-591.88 522.94,-595.43"/>
</g>
<!-- unk2 -->
<g id="node32" class="node">
<title>unk2</title>
<ellipse fill="#bfbfbf" stroke="black" cx="567" cy="-423" rx="28.7" ry="18"/>
<text text-anchor="middle" x="567" y="-419.3" font-family="Times,serif" font-size="14.00">unk2</text>
</g>
<!-- unk1&#45;&gt;unk2 -->
<g id="edge32" class="edge">
<title>unk1&#45;&gt;unk2</title>
<path fill="none" stroke="#a04040" d="M545.64,-477.41C548.87,-469.34 552.83,-459.43 556.46,-450.35"/>
<polygon fill="#a04040" stroke="#a04040" points="559.75,-451.54 560.22,-440.96 553.25,-448.94 559.75,-451.54"/>
</g>
<!-- unk3 -->
<g id="node33" class="node">
<title>unk3</title>
<ellipse fill="#bfbfbf" stroke="black" cx="581" cy="-351" rx="28.7" ry="18"/>
<text text-anchor="middle" x="581" y="-347.3" font-family="Times,serif" font-size="14.00">unk3</text>
</g>
<!-- unk2&#45;&gt;unk3 -->
<g id="edge33" class="edge">
<title>unk2&#45;&gt;unk3</title>
<path fill="none" stroke="#a04040" d="M570.39,-405.05C571.93,-397.35 573.79,-388.03 575.53,-379.36"/>
<polygon fill="#a04040" stroke="#a04040" points="579.02,-379.77 577.54,-369.28 572.15,-378.39 579.02,-379.77"/>
</g>
<!-- unk3&#45;&gt;13.107.42.14 -->
<g id="edge34" class="edge">
<title>unk3&#45;&gt;13.107.42.14:T80</title>
<path fill="none" stroke="#a04040" d="M582.7,-332.78C583.55,-322.98 584.48,-310.21 584.84,-297.79"/>
<polygon fill="#a04040" stroke="#a04040" points="588.34,-297.55 585,-287.5 581.34,-297.44 588.34,-297.55"/>
</g>
</g>
</svg>
