<?xml version="1.0" encoding="UTF-8" standalone="no"?>
<!DOCTYPE svg PUBLIC "-//W3C//DTD SVG 1.1//EN"
 "http://www.w3.org/Graphics/SVG/1.1/DTD/svg11.dtd">
<!-- Generated by graphviz version 3.0.0 (20220226.1711)
 -->
<!-- Title: trace Pages: 1 -->
<svg width="234pt" height="729pt"
 viewBox="0.00 0.00 234.00 729.00" xmlns="http://www.w3.org/2000/svg" xmlns:xlink="http://www.w3.org/1999/xlink">
<g id="graph0" class="graph" transform="scale(1 1) rotate(0) translate(4 725)">
<title>trace</title>
<polygon fill="white" stroke="transparent" points="-4,4 -4,-725 230,-725 230,4 -4,4"/>
<g id="clust1" class="cluster">
<title>cluster_AS7029</title>
<polygon fill="none" stroke="#608686" stroke-width="2.5" points="61,-307 61,-605 218,-605 218,-307 61,-307"/>
<text text-anchor="middle" x="139.5" y="-593" font-family="Times,serif" font-size="10.00">AS7029</text>
<text text-anchor="middle" x="139.5" y="-582" font-family="Times,serif" font-size="10.00">[Windstream Aggregate (AS7029)]</text>
</g>
<g id="clust2" class="cluster">
<title>cluster_AS8068</title>
<polygon fill="none" stroke="#60baba" stroke-width="2.5" points="8,-8 8,-91 180,-91 180,-8 8,-8"/>
<text text-anchor="middle" x="94" y="-79" font-family="Times,serif" font-size="10.00">AS8068</text>
<text text-anchor="middle" x="94" y="-68" font-family="Times,serif" font-size="10.00">[Microsoft]</text>
</g>
<!-- 66.155.137.121 -->
<g id="node1" class="node">
<title>66.155.137.121</title>
<ellipse fill="#ffffff" stroke="black" cx="139" cy="-549" rx="66.09" ry="18"/>
<text text-anchor="middle" x="139" y="-545.3" font-family="Times,serif" font-size="14.00">66.155.137.121</text>
</g>
<!-- 40.136.99.22 -->
<g id="node4" class="node">
<title>40.136.99.22</title>
<ellipse fill="#ffffff" stroke="black" cx="139" cy="-477" rx="57.69" ry="18"/>
<text text-anchor="middle" x="139" y="-473.3" font-family="Times,serif" font-size="14.00">40.136.99.22</text>
</g>
<!-- 66.155.137.121&#45;&gt;40.136.99.22 -->
<g id="edge3" class="edge">
<title>66.155.137.121&#45;&gt;40.136.99.22</title>
<path fill="none" stroke="#a07070" d="M139,-530.7C139,-522.98 139,-513.71 139,-505.11"/>
<polygon fill="#a07070" stroke="#a07070" points="142.5,-505.1 139,-495.1 135.5,-505.1 142.5,-505.1"/>
</g>
<!-- 40.136.118.213 -->
<g id="node2" class="node">
<title>40.136.118.213</title>
<ellipse fill="#ffffff" stroke="black" cx="139" cy="-333" rx="66.09" ry="18"/>
<text text-anchor="middle" x="139" y="-329.3" font-family="Times,serif" font-size="14.00">40.136.118.213</text>
</g>
<!-- unk0 -->
<g id="node8" class="node">
<title>unk0</title>
<ellipse fill="#bfbfbf" stroke="black" cx="139" cy="-261" rx="28.7" ry="18"/>
<text text-anchor="middle" x="139" y="-257.3" font-family="Times,serif" font-size="14.00">unk0</text>
</g>
<!-- 40.136.118.213&#45;&gt;unk0 -->
<g id="edge6" class="edge">
<title>40.136.118.213&#45;&gt;unk0</title>
<path fill="none" stroke="#a07070" d="M139,-314.7C139,-306.98 139,-297.71 139,-289.11"/>
<polygon fill="#a07070" stroke="#a07070" points="142.5,-289.1 139,-279.1 135.5,-289.1 142.5,-289.1"/>
</g>
<!-- 40.136.99.44 -->
<g id="node3" class="node">
<title>40.136.99.44</title>
<ellipse fill="#ffffff" stroke="black" cx="139" cy="-405" rx="57.69" ry="18"/>
<text text-anchor="middle" x="139" y="-401.3" font-family="Times,serif" font-size="14.00">40.136.99.44</text>
</g>
<!-- 40.136.99.44&#45;&gt;40.136.118.213 -->
<g id="edge5" class="edge">
<title>40.136.99.44&#45;&gt;40.136.118.213</title>
<path fill="none" stroke="#a07070" d="M139,-386.7C139,-378.98 139,-369.71 139,-361.11"/>
<polygon fill="#a07070" stroke="#a07070" points="142.5,-361.1 139,-351.1 135.5,-361.1 142.5,-361.1"/>
</g>
<!-- 40.136.99.22&#45;&gt;40.136.99.44 -->
<g id="edge4" class="edge">
<title>40.136.99.22&#45;&gt;40.136.99.44</title>
<path fill="none" stroke="#a07070" d="M139,-458.7C139,-450.98 139,-441.71 139,-433.11"/>
<polygon fill="#a07070" stroke="#a07070" points="142.5,-433.1 139,-423.1 135.5,-433.1 142.5,-433.1"/>
</g>
<!-- 13.107.42.14 -->
<g id="node5" class="node">
<title>13.107.42.14</title>
<polygon fill="#14a045" stroke="black" points="16,-16.5 16,-52.5 172,-52.5 172,-16.5 16,-16.5"/>
<text text-anchor="middle" x="60.5" y="-30.8" font-family="Times,serif" font-size="14.00">13.107.42.14</text>
<polyline fill="none" stroke="black" points="105,-16.5 105,-52.5 "/>
<text text-anchor="middle" x="138.5" y="-30.8" font-family="Times,serif" font-size="14.00">http SAE</text>
</g>
<!-- 192.168.0.1 -->
<g id="node6" class="node">
<title>192.168.0.1</title>
<ellipse fill="#bfbfbf" stroke="black" cx="139" cy="-703" rx="53.09" ry="18"/>
<text text-anchor="middle" x="139" y="-699.3" font-family="Times,serif" font-size="14.00">192.168.0.1</text>
</g>
<!-- 172.16.111.1 -->
<g id="node7" class="node">
<title>172.16.111.1</title>
<ellipse fill="#bfbfbf" stroke="black" cx="139" cy="-631" rx="57.69" ry="18"/>
<text text-anchor="middle" x="139" y="-627.3" font-family="Times,serif" font-size="14.00">172.16.111.1</text>
</g>
<!-- 192.168.0.1&#45;&gt;172.16.111.1 -->
<g id="edge1" class="edge">
<title>192.168.0.1&#45;&gt;172.16.111.1</title>
<path fill="none" stroke="#a07070" d="M139,-684.7C139,-676.98 139,-667.71 139,-659.11"/>
<polygon fill="#a07070" stroke="#a07070" points="142.5,-659.1 139,-649.1 135.5,-659.1 142.5,-659.1"/>
</g>
<!-- 172.16.111.1&#45;&gt;66.155.137.121 -->
<g id="edge2" class="edge">
<title>172.16.111.1&#45;&gt;66.155.137.121</title>
<path fill="none" stroke="#a07070" d="M139,-612.64C139,-602.3 139,-588.94 139,-577.22"/>
<polygon fill="#a07070" stroke="#a07070" points="142.5,-577.05 139,-567.05 135.5,-577.05 142.5,-577.05"/>
</g>
<!-- unk1 -->
<g id="node9" class="node">
<title>unk1</title>
<ellipse fill="#bfbfbf" stroke="black" cx="139" cy="-189" rx="28.7" ry="18"/>
<text text-anchor="middle" x="139" y="-185.3" font-family="Times,serif" font-size="14.00">unk1</text>
</g>
<!-- unk0&#45;&gt;unk1 -->
<g id="edge7" class="edge">
<title>unk0&#45;&gt;unk1</title>
<path fill="none" stroke="#a07070" d="M139,-242.7C139,-234.98 139,-225.71 139,-217.11"/>
<polygon fill="#a07070" stroke="#a07070" points="142.5,-217.1 139,-207.1 135.5,-217.1 142.5,-217.1"/>
</g>
<!-- unk2 -->
<g id="node10" class="node">
<title>unk2</title>
<ellipse fill="#bfbfbf" stroke="black" cx="139" cy="-117" rx="28.7" ry="18"/>
<text text-anchor="middle" x="139" y="-113.3" font-family="Times,serif" font-size="14.00">unk2</text>
</g>
<!-- unk1&#45;&gt;unk2 -->
<g id="edge8" class="edge">
<title>unk1&#45;&gt;unk2</title>
<path fill="none" stroke="#a07070" d="M139,-170.7C139,-162.98 139,-153.71 139,-145.11"/>
<polygon fill="#a07070" stroke="#a07070" points="142.5,-145.1 139,-135.1 135.5,-145.1 142.5,-145.1"/>
</g>
<!-- unk2&#45;&gt;13.107.42.14 -->
<g id="edge9" class="edge">
<title>unk2&#45;&gt;13.107.42.14:T80</title>
<path fill="none" stroke="#a07070" d="M139,-98.76C139,-88.95 139,-76.18 139,-63.77"/>
<polygon fill="#a07070" stroke="#a07070" points="142.5,-63.5 139,-53.5 135.5,-63.5 142.5,-63.5"/>
</g>
</g>
</svg>
